<?xml version="1.0" encoding="UTF-8"?>
<svg xmlns="http://www.w3.org/2000/svg" viewBox="272 173 482 398">
  <defs>
    <style>
      .st1 { fill: #ff2d95; }
      .st2 { fill: #00f5ff; }
    </style>
  </defs>
  <g>
    <path class="st2" d="M388.28,409.97c4.75,0,8.6-3.85,8.6-8.6v-19.26h19.26c4.75,0,8.6-3.85,8.6-8.6s-3.85-8.6-8.6-8.6h-19.26v-19.27c0-4.75-3.85-8.6-8.6-8.6s-8.6,3.85-8.6,8.6v19.27h-19.26c-4.75,0-8.6,3.85-8.6,8.6s3.85,8.6,8.6,8.6h19.26v19.26c0,4.75,3.85,8.6,8.6,8.6Z"/>
    <path class="st2" d="M612.65,371.71c0-6.31-5.13-11.43-11.43-11.43s-11.43,5.13-11.43,11.43,5.13,11.43,11.43,11.43,11.43-5.13,11.43-11.43Z"/>
    <path class="st2" d="M664.92,371.71c0-6.31-5.13-11.43-11.43-11.43s-11.43,5.13-11.43,11.43,5.13,11.43,11.43,11.43,11.43-5.13,11.43-11.43Z"/>
    <path class="st2" d="M627.35,357.01c6.31,0,11.44-5.13,11.44-11.43s-5.13-11.43-11.44-11.43-11.43,5.13-11.43,11.43,5.13,11.43,11.43,11.43Z"/>
    <path class="st2" d="M627.35,409.28c6.31,0,11.44-5.13,11.44-11.43s-5.13-11.43-11.44-11.43-11.43,5.13-11.43,11.43,5.13,11.43,11.43,11.43Z"/>
    <path class="st1" d="M374.96,267.47c31.62-41.77,81.73-68.82,138.04-68.82,40.51,0,77.78,14.03,107.3,37.43h37.95c-36.32-38.87-87.98-63.24-145.26-63.24-72.91,0-136.74,39.47-171.37,98.13,8.55-2.27,17.51-3.5,26.76-3.5h6.56Z"/>
    <path class="st1" d="M671.3,441.54h-120.5v25.81h106.3c-31.03,46.62-84.02,77.43-144.1,77.43-56.31,0-106.42-27.05-138.04-68.82h-6.56c-9.25,0-18.22-1.23-26.76-3.5,34.62,58.67,98.46,98.13,171.37,98.13,85.1,0,157.85-53.74,186.19-129.04h-27.89Z"/>
    <path class="st2" d="M657.6,276.07h-289.21c-52.74,0-95.64,42.9-95.64,95.64s42.9,95.64,95.64,95.64h157.51v-72.58h-70.84v25.81h45.03v20.96h-131.7c-38.5,0-69.83-31.33-69.83-69.83s31.32-69.83,69.83-69.83h289.21c38.51,0,69.83,31.33,69.83,69.83,0,13.83-4.09,26.71-11.06,37.57h29.17c4.95-11.54,7.7-24.24,7.7-37.57,0-52.74-42.91-95.64-95.64-95.64Z"/>
  </g>
</svg>
