<?xml version="1.0" encoding="UTF-8"?>
<svg xmlns="http://www.w3.org/2000/svg" viewBox="180 200 660 320">
  <defs>
    <style>
      .st1 { fill: #ff2d95; }
      .st2 { fill: #00f5ff; }
    </style>
  </defs>
 <g>
    <path class="st2" d="M192.41,481.95c0-17.64,13.25-29.12,29.55-29.12,10.97,0,18.15,5.23,22.71,11.73l-8.1,4.56c-2.96-4.22-8.27-7.51-14.6-7.51-11.14,0-19.42,8.53-19.42,20.34s8.27,20.43,19.42,20.43c5.74,0,10.81-2.7,13.34-5.06v-8.78h-16.8v-8.7h26.68v21.1c-5.57,6.16-13.42,10.21-23.22,10.21-16.29,0-29.55-11.57-29.55-29.21Z"/>
    <path class="st2" d="M370.64,510.07v-41.79l-17.31,41.79h-4.22l-17.22-41.79v41.79h-9.88v-56.31h13.93l15.28,37.06,15.37-37.06h13.93v56.31h-9.88Z"/>
    <path class="st2" d="M463.77,510.07l-29.38-40.18v40.18h-9.88v-56.31h10.13l28.79,39.09v-39.09h9.88v56.31h-9.54Z"/>
    <path class="st2" d="M487.84,481.95c0-17.64,13.25-29.12,29.55-29.12,10.97,0,18.15,5.23,22.71,11.73l-8.1,4.56c-2.96-4.22-8.27-7.51-14.6-7.51-11.14,0-19.42,8.53-19.42,20.34s8.27,20.43,19.42,20.43c5.74,0,10.81-2.7,13.34-5.06v-8.78h-16.8v-8.7h26.68v21.1c-5.57,6.16-13.42,10.21-23.22,10.21-16.29,0-29.55-11.57-29.55-29.21Z"/>
    <path class="st1" d="M580.21,481.95c0-17.64,13.25-29.12,29.55-29.12,10.98,0,18.15,5.23,22.71,11.73l-8.1,4.56c-2.96-4.22-8.27-7.51-14.6-7.51-11.14,0-19.42,8.53-19.42,20.34s8.27,20.43,19.42,20.43c5.74,0,10.81-2.7,13.34-5.06v-8.78h-16.8v-8.7h26.68v21.1c-5.57,6.16-13.42,10.21-23.22,10.21-16.29,0-29.55-11.57-29.55-29.21Z"/>
    <path class="st1" d="M675.28,510.07v-56.31h9.88v47.61h24.82v8.7h-34.7Z"/>
    <path class="st1" d="M724,510.07v-56.31h20.94c17.56,0,29.46,11.65,29.46,28.2s-11.9,28.11-29.46,28.11h-20.94ZM764.26,481.95c0-10.89-6.75-19.5-19.33-19.5h-11.06v38.92h11.06c12.24,0,19.33-8.78,19.33-19.42Z"/>
    <g>
      <polygon class="st2" points="789.01 453.76 789.01 462.45 798.89 462.45 822.29 462.45 827.59 462.45 827.59 453.76 789.01 453.76"/>
      <polygon class="st1" points="798.89 485.75 827 485.75 827 477.06 822.29 477.06 798.89 477.06 789.01 477.06 789.01 510.07 827.59 510.07 827.59 501.37 798.89 501.37 798.89 485.75"/>
    </g>
    <g>
      <polygon class="st2" points="658.22 455.4 658.22 453.76 648.35 453.76 648.35 465.28 658.22 455.4"/>
      <polygon class="st1" points="648.35 472.47 648.35 510.07 658.22 510.07 658.22 462.59 648.35 472.47"/>
    </g>
    <g>
      <polygon class="st1" points="407.46 455.4 407.46 453.76 397.58 453.76 397.58 465.28 407.46 455.4"/>
      <polygon class="st2" points="397.58 472.47 397.58 510.07 407.46 510.07 407.46 462.59 397.58 472.47"/>
    </g>
    <polygon class="st2" points="288.66 453.76 276.34 453.76 254.22 510.07 265.45 510.07 282.5 463.72 299.55 510.07 310.78 510.07 288.66 453.76"/>
  </g>
  <g>
    <path class="st2" d="M440.91,334.2c2.63,0,4.77-2.13,4.77-4.77v-10.67h10.67c2.63,0,4.77-2.13,4.77-4.77s-2.13-4.77-4.77-4.77h-10.67v-10.67c0-2.63-2.13-4.77-4.77-4.77s-4.77,2.13-4.77,4.77v10.67h-10.67c-2.63,0-4.77,2.13-4.77,4.77s2.13,4.77,4.77,4.77h10.67v10.67c0,2.63,2.13,4.77,4.77,4.77Z"/>
    <path class="st2" d="M565.21,313.01c0-3.49-2.84-6.33-6.33-6.33s-6.33,2.84-6.33,6.33,2.84,6.33,6.33,6.33,6.33-2.84,6.33-6.33Z"/>
    <path class="st2" d="M594.16,313.01c0-3.49-2.84-6.33-6.33-6.33s-6.33,2.84-6.33,6.33,2.84,6.33,6.33,6.33,6.33-2.84,6.33-6.33Z"/>
    <path class="st2" d="M573.35,304.86c3.49,0,6.34-2.84,6.34-6.33s-2.84-6.33-6.34-6.33-6.33,2.84-6.33,6.33,2.84,6.33,6.33,6.33Z"/>
    <path class="st2" d="M573.35,333.82c3.49,0,6.34-2.84,6.34-6.33s-2.84-6.33-6.34-6.33-6.33,2.84-6.33,6.33,2.84,6.33,6.33,6.33Z"/>
    <path class="st1" d="M433.53,255.26c17.52-23.14,45.27-38.13,76.47-38.13,22.44,0,43.09,7.77,59.44,20.74h21.03c-20.12-21.53-48.74-35.03-80.47-35.03-40.39,0-75.75,21.86-94.93,54.36,4.73-1.26,9.7-1.94,14.83-1.94h3.64Z"/>
    <path class="st1" d="M597.69,351.69h-66.75v14.3h58.89c-17.19,25.83-46.54,42.89-79.83,42.89-31.2,0-58.95-14.98-76.47-38.13h-3.64c-5.12,0-10.09-.68-14.83-1.94,19.18,32.5,54.54,54.36,94.93,54.36,47.14,0,87.44-29.77,103.14-71.49h-15.45Z"/>
    <path class="st2" d="M590.11,260.03h-160.21c-29.21,0-52.98,23.77-52.98,52.98s23.77,52.98,52.98,52.98h87.26v-40.21h-39.24v14.3h24.94v11.61h-72.96c-21.33,0-38.68-17.35-38.68-38.68s17.35-38.68,38.68-38.68h160.21c21.33,0,38.69,17.35,38.69,38.68,0,7.66-2.27,14.8-6.13,20.81h16.16c2.74-6.39,4.26-13.43,4.26-20.81,0-29.21-23.77-52.98-52.98-52.98Z"/>
  </g>
</svg>
