<?xml version='1.0' encoding='UTF-8' standalone='no'?>
<svg xmlns="http://www.w3.org/2000/svg" id="Layer_1" version="1.1" viewBox="0 0 848.891 78.420" width="1009.580" height="92.724">
  <defs id="defs1">
    <style id="style1">
      .st1 {
        fill: #ff2d95;
      }

      .st2 {
        fill: #00f5ff;
      }
    </style>
  </defs>
  <g id="g13" transform="translate(-85.549626,-343.000198)">
    <path class="st2" d="m 85.81,382.15 c 0,-23.56 17.7,-38.9 39.47,-38.9 14.66,0 24.24,6.99 30.33,15.67 l -10.82,6.09 c -3.95,-5.64 -11.05,-10.03 -19.51,-10.03 -14.89,0 -25.93,11.39 -25.93,27.17 0,15.78 11.05,27.29 25.93,27.29 7.67,0 14.43,-3.61 17.81,-6.76 v -11.73 h -22.44 v -11.61 h 35.63 v 28.19 c -7.44,8.23 -17.93,13.64 -31.01,13.64 -21.76,0 -39.47,-15.45 -39.47,-39.01 z" id="path1"/>
    <path class="st2" d="m 323.86,419.7 v -55.81 l -23.11,55.81 h -5.64 l -23,-55.81 v 55.81 h -13.19 v -75.21 h 18.6 l 20.41,49.5 20.52,-49.5 h 18.6 v 75.21 z" id="path2"/>
    <path class="st2" d="m 448.25,419.7 -39.24,-53.67 v 53.67 h -13.19 v -75.21 h 13.53 l 38.45,52.21 v -52.21 h 13.19 v 75.21 z" id="path3"/>
    <path class="st2" d="m 480.4,382.15 c 0,-23.56 17.7,-38.9 39.47,-38.9 14.66,0 24.24,6.99 30.33,15.67 l -10.82,6.09 c -3.95,-5.64 -11.05,-10.03 -19.51,-10.03 -14.89,0 -25.93,11.39 -25.93,27.17 0,15.78 11.05,27.29 25.93,27.29 7.67,0 14.43,-3.61 17.81,-6.76 v -11.73 h -22.44 v -11.61 h 35.63 v 28.19 c -7.44,8.23 -17.93,13.64 -31.01,13.64 -21.76,0 -39.47,-15.45 -39.47,-39.01 z" id="path4"/>
    <path class="st1" d="m 603.78,382.15 c 0,-23.56 17.7,-38.9 39.46,-38.9 14.66,0 24.24,6.99 30.33,15.67 l -10.82,6.09 c -3.95,-5.64 -11.05,-10.03 -19.51,-10.03 -14.88,0 -25.93,11.39 -25.93,27.17 0,15.78 11.05,27.29 25.93,27.29 7.67,0 14.43,-3.61 17.81,-6.76 v -11.73 h -22.44 v -11.61 h 35.63 v 28.19 c -7.44,8.23 -17.93,13.64 -31.01,13.64 -21.76,0 -39.46,-15.45 -39.46,-39.01 z" id="path5"/>
    <path class="st1" d="m 730.76,419.7 v -75.21 h 13.19 v 63.59 h 33.15 v 11.61 h -46.34 z" id="path6"/>
    <path class="st1" d="m 795.83,419.7 v -75.21 h 27.96 c 23.45,0 39.35,15.56 39.35,37.66 0,22.1 -15.9,37.55 -39.35,37.55 z m 53.78,-37.55 c 0,-14.55 -9.02,-26.05 -25.82,-26.05 h -14.77 v 51.98 h 14.77 c 16.35,0 25.82,-11.73 25.82,-25.93 z" id="path7"/>
    <g id="g8">
      <polygon class="st2" points="882.66,356.1 895.85,356.1 927.12,356.1 934.19,356.1 934.19,344.49 882.66,344.49 " id="polygon7"/>
      <polygon class="st1" points="882.66,375.61 882.66,419.7 934.19,419.7 934.19,408.08 895.85,408.08 895.85,387.22 933.4,387.22 933.4,375.61 927.12,375.61 895.85,375.61 " id="polygon8"/>
    </g>
    <g id="g10">
      <polygon class="st2" points="694.78,359.87 707.98,346.68 707.98,344.49 694.78,344.49 " id="polygon9"/>
      <polygon class="st1" points="707.98,356.29 694.78,369.48 694.78,419.7 707.98,419.7 " id="polygon10"/>
    </g>
    <g id="g12">
      <polygon class="st1" points="359.85,359.87 373.04,346.68 373.04,344.49 359.85,344.49 " id="polygon11"/>
      <polygon class="st2" points="373.04,356.29 359.85,369.48 359.85,419.7 373.04,419.7 " id="polygon12"/>
    </g>
    <polygon class="st2" points="183.36,419.7 206.14,357.8 228.91,419.7 243.91,419.7 214.37,344.49 197.91,344.49 168.36,419.7 " id="polygon13"/>
  </g>
</svg>
