<?xml version="1.0" encoding="UTF-8" standalone="no"?>
<svg
   width="361.71201"
   height="280"
   viewBox="0 -28.5 115.74784 89.6"
   version="1.1"
   preserveAspectRatio="xMidYMid"
   id="svg1"
   sodipodi:docname="discord-yellow.svg"
   inkscape:version="1.4 (86a8ad7, 2024-10-11)"
   xmlns:inkscape="http://www.inkscape.org/namespaces/inkscape"
   xmlns:sodipodi="http://sodipodi.sourceforge.net/DTD/sodipodi-0.dtd"
   xmlns="http://www.w3.org/2000/svg"
   xmlns:svg="http://www.w3.org/2000/svg">
  <defs
     id="defs1" />
  <sodipodi:namedview
     id="namedview1"
     pagecolor="#505050"
     bordercolor="#eeeeee"
     borderopacity="1"
     inkscape:showpageshadow="0"
     inkscape:pageopacity="0"
     inkscape:pagecheckerboard="0"
     inkscape:deskcolor="#505050"
     inkscape:zoom="2.23875"
     inkscape:cx="400"
     inkscape:cy="400"
     inkscape:window-width="3840"
     inkscape:window-height="2054"
     inkscape:window-x="3829"
     inkscape:window-y="-11"
     inkscape:window-maximized="1"
     inkscape:current-layer="svg1" />
  <g
     id="g1"
     transform="translate(-27.300949,-22.639587)">
    <path
       d="m 125.35027,1.6435665 c -7.49256,-3.5055805 -15.50396,-6.0532906 -23.87965,-7.5039797 -1.02864,1.8597316 -2.230379,4.3611111 -3.058935,6.35094932 -8.903578,-1.3389877 -17.725284,-1.3389877 -26.465119,0 C 71.118168,-1.4993021 69.889136,-4.0006816 68.851298,-5.8604132 60.466559,-4.4097241 52.445962,-1.8526527 44.953406,1.6621305 29.840853,24.499178 25.744088,46.768992 27.792475,68.722584 c 10.023439,7.485257 19.737359,12.032324 29.287345,15.0078 2.357945,-3.245209 4.460913,-6.694939 6.272568,-10.330625 -3.450364,-1.311063 -6.755073,-2.928987 -9.877633,-4.807282 0.828398,-0.613723 1.638709,-1.255371 2.421571,-1.915582 19.04539,8.90802 39.738693,8.90802 58.556554,0 0.79207,0.660211 1.60222,1.301859 2.42157,1.915582 -3.13176,1.887498 -6.44551,3.505422 -9.89588,4.816642 1.81166,3.626326 3.90558,7.085418 6.27257,10.330468 9.55919,-2.975475 19.28212,-7.522385 29.30557,-15.017003 2.40348,-25.449812 -4.10582,-47.515103 -17.20644,-67.0790175 z M 65.947064,55.221322 c -5.717234,0 -10.405835,-5.337386 -10.405835,-11.837007 0,-6.49962 4.588481,-11.84621 10.405835,-11.84621 5.817512,0 10.505952,5.337229 10.405833,11.84621 0.0091,6.499621 -4.588321,11.837007 -10.405833,11.837007 z m 38.455076,0 c -5.717231,0 -10.40583,-5.337386 -10.40583,-11.837007 0,-6.49962 4.588322,-11.84621 10.40583,-11.84621 5.81736,0 10.50596,5.337229 10.40584,11.84621 0,6.499621 -4.58848,11.837007 -10.40584,11.837007 z"
       fill="#ffab2c"
       fill-rule="nonzero"
       id="path1"
       style="stroke-width:0.45214" />
  </g>
</svg>
