<?xml version="1.0" encoding="utf-8"?>
<svg version="1.0" xmlns="http://www.w3.org/2000/svg" xmlns:xlink="http://www.w3.org/1999/xlink" x="0px" y="0px"
	 viewBox="0 0 106.1 50.64" enable-background="new 0 0 106.1 50.64" xml:space="preserve">
<g>
	<path d="M102.52,9.3h-3.96v2.45h4.12c0.96,0,1.4,0.38,1.4,1.02c0,0.63-0.44,1.01-1.4,1.01h-4.12v2.45h3.96
		c2.3,0,3.58-1.31,3.58-3.47C106.1,10.6,104.82,9.3,102.52,9.3z"/>
	<path d="M105.99,5.56h-2.36V5.13c0-2.09-0.96-3.38-2.53-3.38c-1.57,0-2.53,1.28-2.53,3.38v2.89h7.43V5.56z M101.87,5.56h-1.55V5.28
		c0-0.64,0.23-0.9,0.78-0.9c0.54,0,0.78,0.26,0.78,0.9V5.56z"/>
	<polygon points="15.5,17.63 15.5,33.22 26.92,33.22 26.92,29.26 20.68,29.26 20.68,17.63 	"/>
	<polygon points="40.47,21.6 40.47,17.63 28.79,17.63 28.79,33.22 40.47,33.22 40.47,29.26 33.97,29.26 33.97,27.34 39.69,27.34 
		39.69,23.37 33.97,23.37 33.97,21.6 	"/>
	<polygon points="58.68,29.26 58.68,33.22 70.35,33.22 70.35,17.63 58.68,17.63 58.68,21.6 65.18,21.6 65.18,23.37 59.46,23.37 
		59.46,27.34 65.18,27.34 65.18,29.26 	"/>
	<polygon points="72.94,29.26 72.94,33.22 84.35,33.22 84.35,17.63 79.18,17.63 79.18,29.26 	"/>
	<path d="M92.59,28.91c-1.24,1.12-2.43,2.3-3.64,3.44l-3.57,3.51l-3.51,3.58c-0.28,0.3-0.57,0.6-0.85,0.9H52.66l-1.5-4.29
		l-1.67-4.74l-1.67,4.74l-1.5,4.29H11.36V13.54c0.36-0.36,0.73-0.72,1.1-1.08c0.49-0.49,0.97-0.98,1.46-1.48
		c0,0-0.01,0.01-0.01,0.01h25.27l6.68,18.53h2.1h3.07h2.1l6.68-18.53h-7.33l-2.83,9.48l-2.83-9.48l-1.19-4h-7.88H17.79
		c0.21-0.22,0.43-0.44,0.64-0.67l2.93-3.12c0.95-1.07,1.92-2.11,2.85-3.2c-1.09,0.93-2.13,1.9-3.2,2.85l-3.12,2.93
		c-1.32,1.24-2.62,2.51-3.91,3.78H8.94h-4v4v5.23C3.26,20.57,1.6,22.36,0,24.21c2.16-1.87,4.25-3.82,6.32-5.78
		c0.35-0.33,0.69-0.67,1.04-1c0,0,0,0,0,0v22.9v4h4h36.48v4.24h3.22v-4.24h26.22c0.04-0.04,0.07-0.08,0.11-0.12
		c-1.91,2.09-3.8,4.21-5.59,6.42c2.61-2.11,5.1-4.34,7.56-6.62c1.24-1.13,2.43-2.29,3.64-3.44l1.78-1.75h8.24h4v-4v-8.85
		c1.06-1.21,2.1-2.43,3.12-3.69C97.53,24.4,95.04,26.63,92.59,28.91z M9.97,13.56c-0.34,0.35-0.69,0.7-1.03,1.05v-1.05H9.97z
		 M88.78,34.83l1.31-1.33c0.98-1.04,1.97-2.06,2.94-3.1v4.44H88.78z"/>
	<path d="M92.07,26.06l1.55-1.52c0.82-0.78,1.64-1.56,2.45-2.34V5.76v0v-4H63.14l-1.44,4h30.38V26.06z"/>
</g>
</svg>
