<?xml version="1.0" encoding="UTF-8" standalone="no"?>
<!-- Created with Inkscape (http://www.inkscape.org/) -->

<svg
   width="209.215mm"
   height="211.492mm"
   viewBox="0 0 209.215 211.492"
   version="1.1"
   id="svg1"
   xml:space="preserve"
   inkscape:version="1.4 (86a8ad7, 2024-10-11)"
   sodipodi:docname="steam-yellow.svg"
   xmlns:inkscape="http://www.inkscape.org/namespaces/inkscape"
   xmlns:sodipodi="http://sodipodi.sourceforge.net/DTD/sodipodi-0.dtd"
   xmlns="http://www.w3.org/2000/svg"
   xmlns:svg="http://www.w3.org/2000/svg"><sodipodi:namedview
     id="namedview1"
     pagecolor="#505050"
     bordercolor="#eeeeee"
     borderopacity="1"
     inkscape:showpageshadow="0"
     inkscape:pageopacity="0"
     inkscape:pagecheckerboard="0"
     inkscape:deskcolor="#505050"
     inkscape:document-units="mm"
     inkscape:zoom="1.5955177"
     inkscape:cx="396.73644"
     inkscape:cy="560.94646"
     inkscape:window-width="3840"
     inkscape:window-height="2054"
     inkscape:window-x="3829"
     inkscape:window-y="-11"
     inkscape:window-maximized="1"
     inkscape:current-layer="layer1" /><defs
     id="defs1" /><g
     inkscape:label="Ebene 1"
     inkscape:groupmode="layer"
     id="layer1"><path
       d="M 104.42651,0 C 49.378282,0 4.2826178,42.833718 0,97.26368 l 56.16412,23.43376 c 4.757626,-3.28736 10.510509,-5.20248 16.693162,-5.20248 0.557946,0 1.108353,0.0151 1.65122,0.0453 L 99.487926,79.00223 v -0.5127 c 0,-21.986118 17.726124,-39.878111 39.516204,-39.878111 21.79008,0 39.51619,17.891993 39.51619,39.878111 0,21.98611 -17.72611,39.88564 -39.51619,39.88564 -0.3016,0 -0.59564,-0.007 -0.89724,-0.0151 l -35.62565,25.64294 c 0.0226,0.475 0.0377,0.95001 0.0377,1.41748 0,16.5122 -13.307795,29.94062 -29.661663,29.94062 -14.355817,0 -26.366751,-10.34463 -29.081087,-24.03695 L 3.604034,134.56317 c 12.440702,44.38692 52.854139,76.92879 100.822476,76.92879 57.87566,0 104.78842,-47.35007 104.78842,-105.74598 C 209.21493,47.34253 162.30217,0 104.42651,0 Z M 65.667309,160.4519 52.796836,155.08354 c 2.277026,4.79533 6.227891,8.80651 11.468066,11.00814 11.32481,4.76517 24.383778,-0.65596 29.103708,-12.09387 2.284561,-5.53423 2.299648,-11.64148 0.03768,-17.19079 -2.261949,-5.54931 -6.537027,-9.87716 -12.018475,-12.18435 -5.451291,-2.28457 -11.287111,-2.20162 -16.414189,-0.24882 l 13.300243,5.54932 c 8.354119,3.51355 12.304987,13.19468 8.821591,21.6242 -3.475861,8.42952 -13.07405,12.41808 -21.42817,8.90453 z M 165.3362,78.49028 c 0,-14.64987 -11.8149,-26.577865 -26.32906,-26.577865 -14.52169,0 -26.33658,11.927995 -26.33658,26.577865 0,14.64987 11.81489,26.57033 26.33658,26.57033 14.51416,0 26.32906,-11.92046 26.32906,-26.57033 z m -46.06831,-0.0452 c 0,-11.02322 8.85929,-19.9579 19.77695,-19.9579 10.92521,0 19.78449,8.93468 19.78449,19.9579 0,11.02323 -8.85928,19.95791 -19.78449,19.95791 -10.91766,0 -19.77695,-8.93469 -19.77695,-19.95791 z"
       fill="#1a1918"
       id="path1"
       style="stroke-width:0.817246" /><path
       style="fill:#000000;stroke-width:0.626756"
       d="M 367.59229,798.16935 C 312.55968,793.78061 265.36685,780.73782 217.79765,756.77031 131.17727,713.12704 63.24724,638.52022 26.944113,547.15784 23.766523,539.16095 13.90305,509.8559 14.266666,509.49229 c 0.194441,-0.19444 150.271394,62.22814 150.742784,62.69952 0.10847,0.10848 0.72949,2.41734 1.38004,5.13079 3.35687,14.00156 10.49323,28.94168 19.54985,40.92806 16.7593,22.18079 40.74598,37.20569 68.31432,42.79109 6.21644,1.2594 8.9037,1.43621 21.5189,1.41559 12.50522,-0.0204 15.28742,-0.2099 20.99632,-1.42969 31.39908,-6.70905 57.42043,-24.82574 74.01639,-51.53212 10.63856,-17.11967 16.86321,-38.77263 16.86321,-58.66013 v -6.38341 l 66.97748,-48.21687 66.97747,-48.21688 9.01445,-0.43032 c 22.35558,-1.06718 40.55632,-5.71206 60.41286,-15.41752 45.74309,-22.35826 77.11429,-67.30262 83.07166,-119.01368 1.13092,-9.8167 0.47772,-32.30229 -1.21352,-41.77145 -5.77148,-32.31474 -20.33603,-60.19497 -43.20742,-82.7102 -29.59592,-29.13495 -67.83062,-44.11261 -109.16075,-42.76145 -22.85769,0.74726 -42.36223,5.77198 -62.74691,16.1647 -39.9296,20.35733 -68.81291,57.93149 -78.48383,102.09926 -1.92924,8.81098 -2.85677,16.00511 -3.43711,26.65922 l -0.44262,8.12573 -46.99154,68.70596 -46.99155,68.70596 -10.97512,0.3487 c -12.2695,0.38981 -19.22721,1.59371 -30.09117,5.20671 -7.88067,2.62085 -17.71465,7.22418 -23.68875,11.08881 l -4.35523,2.81738 -87.04239,-36.31689 C 77.401179,399.54487 29.683465,379.63846 19.235128,375.28269 L 0.23814904,367.36311 0.63404255,363.2471 C 6.5475564,301.76569 25.176576,244.54974 55.949725,193.35417 113.969,96.830735 208.70111,29.741464 317.83004,7.8905613 c 11.73752,-2.3502048 27.8526,-4.6839672 42.24118,-6.1173043 15.37033,-1.53113549 53.34255,-1.52858711 69.25652,0.00465 51.68081,4.9791966 97.28376,18.006999 141.9602,40.555036 106.21367,53.605664 183.07525,152.279287 209.33475,268.740537 12.18488,54.04033 12.92922,112.18479 2.13517,166.80322 -10.09052,51.05876 -30.22242,100.07355 -58.83244,143.23832 -55.14098,83.193 -138.66609,142.45509 -234.42912,166.33041 -17.66989,4.4054 -34.33586,7.31618 -54.84113,9.57814 -9.19198,1.01403 -16.66079,1.3197 -36.03846,1.47482 -13.44392,0.10768 -27.4049,-0.0404 -31.02442,-0.32904 z"
       id="path2"
       transform="scale(0.26458333)" /><path
       style="fill:#000000;stroke-width:0.626756"
       d="m 515.50667,396.34833 c -30.294,-3.79045 -56.07951,-19.42603 -72.23006,-43.79818 -11.66288,-17.59999 -16.9664,-35.30794 -16.89416,-56.40802 0.16313,-47.65101 33.16152,-87.99055 80.03626,-97.84193 7.14304,-1.50121 29.39528,-1.69466 36.35184,-0.31603 37.28536,7.38911 66.34456,33.50306 77.37303,69.53099 8.46229,27.64472 4.36113,58.36522 -11.03755,82.67889 -12.12148,19.13914 -31.89973,34.67877 -52.85244,41.5258 -10.09408,3.29859 -16.90361,4.42716 -28.21181,4.67568 -5.68781,0.125 -11.32861,0.10376 -12.53511,-0.0472 z m 24.65298,-25.61661 c 14.93631,-3.09764 28.35431,-10.42862 38.96273,-21.28746 15.12093,-15.47786 23.22516,-38.37077 21.07866,-59.54316 -1.84802,-18.22832 -8.95247,-33.8919 -20.9527,-46.19563 -29.78659,-30.53989 -77.40528,-30.5956 -107.34218,-0.12557 -15.13056,15.39999 -23.24095,38.47014 -21.0111,59.76642 2.64035,25.21682 15.83994,46.12671 37.03435,58.66731 7.71251,4.56345 18.69766,8.34751 27.89064,9.60753 5.92118,0.81157 18.32283,0.35838 24.3396,-0.88944 z"
       id="path3"
       transform="scale(0.26458333)" /><path
       style="fill:#ffab2c;stroke-width:0.626756;fill-opacity:1"
       d="m 268.56487,633.58706 c -23.18703,-1.78099 -45.51154,-14.00924 -59.52283,-32.60363 -3.88527,-5.15615 -8.52279,-12.93939 -8.0133,-13.44888 0.16369,-0.16369 11.54823,4.39534 25.29898,10.13118 30.07491,12.54512 33.56048,13.58134 45.68431,13.58134 7.43247,0 9.73323,-0.24976 15.04214,-1.63288 22.16535,-5.77471 39.34429,-22.95682 45.21223,-45.22057 1.43272,-5.43596 1.65191,-7.51494 1.65191,-15.66889 0,-8.07603 -0.2249,-10.25121 -1.59536,-15.43003 -4.77458,-18.04267 -16.49871,-32.73365 -32.42029,-40.62437 -2.58536,-1.2813 -15.4887,-6.80763 -28.67408,-12.28073 -13.18537,-5.47309 -23.97341,-10.14482 -23.97341,-10.38162 0,-0.5546 8.97592,-2.98292 15.04214,-4.06947 6.33909,-1.13542 19.86579,-1.10371 26.71172,0.0626 35.21955,6.00027 62.71565,33.74969 68.8528,69.48713 1.24189,7.23171 1.22493,20.50071 -0.0358,28.01147 -7.21378,42.97546 -45.97685,73.412 -89.26114,70.08733 z"
       id="path4"
       transform="scale(0.26458333)" /><path
       style="fill:#ffab2c;fill-opacity:1;stroke-width:0.626756"
       d="m 506.6815,394.56255 c -13.84241,-2.95031 -27.21457,-8.72481 -38.18152,-16.48794 -7.60941,-5.38644 -17.93192,-15.70624 -23.33694,-23.33081 -4.98008,-7.02514 -11.66934,-20.19289 -13.8594,-27.28213 -9.17374,-29.69546 -4.64354,-61.04522 12.58545,-87.09332 8.75196,-13.23188 25.37873,-27.4614 39.95848,-34.19726 14.04468,-6.48867 21.39726,-8.10391 38.86679,-8.53843 16.0866,-0.40012 21.29957,0.25698 32.97056,4.15601 34.03943,11.37182 58.72397,39.14639 66.50613,74.83142 1.19678,5.48783 1.38701,8.25136 1.38693,20.14879 -9e-5,15.15191 -0.67794,19.78896 -4.65045,31.8132 -10.7671,32.59049 -39.60441,58.46414 -73.21186,65.68774 -4.67212,1.00423 -9.05231,1.36829 -18.9274,1.57316 -11.86713,0.2462 -13.40288,0.1484 -20.10677,-1.28043 z m 28.73636,-22.91529 c 7.64626,-0.95876 15.2738,-3.33199 23.15334,-7.20391 12.09666,-5.94419 21.89372,-14.4851 29.18464,-25.44269 22.39751,-33.66137 14.89343,-79.03487 -17.04785,-103.08017 -30.27275,-22.78922 -71.4177,-19.89495 -98.16501,6.90526 -25.46805,25.51843 -29.41178,65.27177 -9.50498,95.81151 11.2717,17.29231 30.12707,29.46183 51.16463,33.02237 4.29009,0.72608 15.37753,0.71962 21.21523,-0.0124 z"
       id="path5"
       transform="scale(0.26458333)" /><path
       style="fill:#ffab2c;fill-opacity:1;stroke-width:0.626756"
       d="M 369.47256,797.83854 C 338.88189,796.31346 300.16216,788.69148 269.19163,778.09805 170.50671,744.34324 89.418677,673.66537 42.34692,580.3759 36.157255,568.10887 30.928964,556.51312 26.945676,546.2177 23.320173,536.84704 14.57985,510.74599 14.945127,510.38071 c 0.298604,-0.2986 28.026895,11.09275 95.677273,39.3062 47.03051,19.61397 53.2534,22.26249 53.8888,22.93554 0.28337,0.30017 1.24703,3.25904 2.14145,6.57527 9.95083,36.89448 37.56467,66.27661 73.54523,78.25473 12.9526,4.31201 17.97676,5.02846 35.26131,5.02846 12.79106,0 16.13884,-0.19975 21.43471,-1.27896 14.00065,-2.85318 29.16443,-9.27755 41.65888,-17.64944 8.48042,-5.68236 22.44563,-19.39326 28.59902,-28.07829 5.32375,-7.51406 12.22642,-21.43385 15.0823,-30.41468 3.63039,-11.41643 4.8299,-18.27402 5.22761,-29.88641 l 0.35872,-10.47401 66.82021,-48.11439 66.82021,-48.11438 10.65485,-0.7496 c 21.48321,-1.51141 36.65154,-5.17916 54.44303,-13.16449 46.80768,-21.00864 79.69356,-65.26389 87.25261,-117.41781 1.33981,-9.24445 0.9662,-36.57889 -0.62118,-45.4398 -7.62242,-42.54981 -30.95115,-78.31405 -66.49052,-101.93349 -17.76084,-11.80385 -38.61665,-19.67488 -60.48194,-22.82602 -9.42697,-1.35857 -29.71806,-1.5389 -39.17224,-0.34812 -49.92191,6.28783 -93.85827,37.7906 -115.919,83.11499 -9.27491,19.05556 -13.7779,36.33853 -15.40331,59.11946 l -0.73009,10.23252 -46.79259,68.42534 -46.79259,68.42535 -9.3986,0.43439 c -5.16922,0.23891 -11.65491,0.74383 -14.41264,1.12202 -12.98137,1.78028 -32.00054,9.06769 -42.65544,16.34394 l -2.54306,1.73667 -37.25593,-15.53704 C 51.540291,388.4623 0.67129874,367.21546 0.5808281,367.09826 0.30279032,366.7381 2.9870718,345.268 4.4240172,336.35869 21.093573,233.00459 76.122222,141.61688 159.19598,79.324298 178.08345,65.161591 194.70183,54.81517 216.23076,43.815065 262.88238,19.978639 308.48518,6.9026995 362.57825,1.8520531 c 9.50421,-0.88740475 53.8845,-0.87780228 64.24247,0.0139 66.18002,5.6973407 127.83797,26.9781889 183.0127,63.1656669 84.09415,55.15487 144.25907,140.11998 168.53445,238.00482 19.18299,77.35115 14.48728,161.72145 -13.11593,235.66019 -5.92842,15.88012 -9.81738,24.80935 -17.60664,40.42575 -21.48581,43.07615 -48.85561,79.70874 -84.85101,113.56722 -67.8355,63.80832 -159.06705,102.22713 -249.7622,105.17809 -19.69612,0.64086 -30.26148,0.63377 -43.55953,-0.0292 z"
       id="path6"
       transform="scale(0.26458333)" /></g></svg>
