<?xml version="1.0" encoding="UTF-8" standalone="no"?>
<svg
   width="400.00101"
   height="280"
   viewBox="0 -3 10.000025 7"
   version="1.1"
   id="svg1"
   sodipodi:docname="youtube-yellow.svg"
   inkscape:version="1.4 (86a8ad7, 2024-10-11)"
   xmlns:inkscape="http://www.inkscape.org/namespaces/inkscape"
   xmlns:sodipodi="http://sodipodi.sourceforge.net/DTD/sodipodi-0.dtd"
   xmlns="http://www.w3.org/2000/svg"
   xmlns:svg="http://www.w3.org/2000/svg">
  <defs
     id="defs1" />
  <sodipodi:namedview
     id="namedview1"
     pagecolor="#505050"
     bordercolor="#eeeeee"
     borderopacity="1"
     inkscape:showpageshadow="0"
     inkscape:pageopacity="0"
     inkscape:pagecheckerboard="0"
     inkscape:deskcolor="#505050"
     showgrid="false"
     inkscape:zoom="2.23875"
     inkscape:cx="400"
     inkscape:cy="400"
     inkscape:window-width="3840"
     inkscape:window-height="2054"
     inkscape:window-x="3829"
     inkscape:window-y="-11"
     inkscape:window-maximized="1"
     inkscape:current-layer="svg1" />
  <g
     id="Page-1"
     stroke="none"
     stroke-width="1"
     fill="none"
     fill-rule="evenodd"
     transform="matrix(0.5000012,0,0,0.50000083,4.325225e-7,-3.0000124)">
    <g
       id="Dribbble-Light-Preview"
       transform="translate(-300,-7442)"
       fill="#ffab2c">
      <g
         id="icons"
         transform="translate(56,160)">
        <path
           d="m 251.98843,7291.5859 v -5.6117 c 1.99221,0.9375 3.53517,1.843 5.36003,2.8193 -1.50511,0.8347 -3.36782,1.7712 -5.36003,2.7924 m 11.10257,-8.403 c -0.34366,-0.4528 -0.92937,-0.8048 -1.55293,-0.9215 -1.83283,-0.348 -13.2671,-0.349 -15.09893,0 -0.50004,0.094 -0.9453,0.3201 -1.32781,0.6722 -1.61169,1.4959 -1.10667,9.5179 -0.71819,10.8174 0.16336,0.5624 0.37454,0.9683 0.6405,1.2346 0.34266,0.352 0.81182,0.5943 1.35071,0.703 1.5091,0.3122 9.28369,0.4867 15.12185,0.047 0.53789,-0.094 1.01403,-0.344 1.38956,-0.711 1.49017,-1.49 1.38857,-9.9628 0.19524,-11.8416"
           id="youtube-[#168]" />
      </g>
    </g>
  </g>
</svg>
